<?xml version="1.0" encoding="UTF-8" standalone="no"?>
<svg
   width="346"
   height="194"
   version="1.1"
   id="svg1"
   sodipodi:docname="3.pd.svg"
   inkscape:version="1.4.2 (ebf0e940d0, 2025-05-08)"
   xmlns:inkscape="http://www.inkscape.org/namespaces/inkscape"
   xmlns:sodipodi="http://sodipodi.sourceforge.net/DTD/sodipodi-0.dtd"
   xmlns="http://www.w3.org/2000/svg"
   xmlns:svg="http://www.w3.org/2000/svg">
   <style>
        polyline { fill: none; stroke: #000000; }
        rect { fill: #000000;  stroke: #000000; }
        text { fill: #000000; }
        polyline.dark-theme { fill: none; stroke: #000000; }
        rect.dark-theme { fill: #000000;  stroke: #000000; }
        text.dark-theme { fill: #000000; }
        @media (prefers-color-scheme: dark) {
            polyline { fill: none; stroke: #ffffff; }
            rect { fill: #ffffff;  stroke: #ffffff; }
            text { fill: #ffffff; }
        }
    </style>
  <defs
     id="defs1" />
  <sodipodi:namedview
     id="namedview1"
     pagecolor="#ffffff"
     bordercolor="#666666"
     borderopacity="1.0"
     inkscape:showpageshadow="2"
     inkscape:pageopacity="0.0"
     inkscape:pagecheckerboard="0"
     inkscape:deskcolor="#d1d1d1"
     inkscape:zoom="3.6869565"
     inkscape:cx="161.51533"
     inkscape:cy="97.370283"
     inkscape:window-width="1920"
     inkscape:window-height="1051"
     inkscape:window-x="0"
     inkscape:window-y="0"
     inkscape:window-maximized="1"
     inkscape:current-layer="svg1" />
  <polyline
     points="40.0 191.0 121.0 191.0 121.0 211.0 40.0 211.0 40.0 191.0"
     id="PD.x563dcc6a40b0.t563dcc781ac0R__obj"
     style="stroke-width:1;stroke-linecap:square;stroke-linejoin:round"
     transform="translate(-39.5,-17.5)" />
  <rect
     x="0.5"
     y="173.5"
     width="7"
     height="2"
     id="PD.x563dcc6a40b0.t563dcc781ac0i0__inlet"
     style="stroke-width:1" />
  <text
     x="42"
     y="206"
     id="PD.x563dcc6a40b0.t563dcc781ac0__text"
     style="font-weight:bold;font-size:12px;font-family:'DejaVu Sans Mono';stroke-width:0"
     textLength="77"
     lengthAdjust="spacing"
     transform="translate(-39.5,-17.5)">mtx_print A</text>
  <polyline
     points="40.0 153.0 79.0 153.0 79.0 173.0 40.0 173.0 40.0 153.0"
     id="PD.x563dcc6a40b0.t563dcc781c00R__obj"
     style="stroke-width:1;stroke-linecap:square;stroke-linejoin:round"
     transform="translate(-39.5,-17.5)" />
  <rect
     x="0.5"
     y="153.5"
     width="7"
     height="2"
     id="PD.x563dcc6a40b0.t563dcc781c00o0__outlet"
     style="stroke-width:1" />
  <rect
     x="0.5"
     y="135.5"
     width="7"
     height="2"
     id="PD.x563dcc6a40b0.t563dcc781c00i0__inlet"
     style="stroke-width:1" />
  <rect
     x="32.5"
     y="135.5"
     width="7"
     height="2"
     id="PD.x563dcc6a40b0.t563dcc781c00i1__inlet"
     style="stroke-width:1" />
  <text
     x="42"
     y="168"
     id="PD.x563dcc6a40b0.t563dcc781c00__text"
     style="font-weight:bold;font-size:12px;font-family:'DejaVu Sans Mono';stroke-width:0"
     textLength="35"
     lengthAdjust="spacing"
     transform="translate(-39.5,-17.5)">mtx_*</text>
  <polyline
     points="174.0 191.0 255.0 191.0 255.0 211.0 174.0 211.0 174.0 191.0"
     id="PD.x563dcc6a40b0.t563dcc781ca0R__obj"
     style="stroke-width:1;stroke-linecap:square;stroke-linejoin:round"
     transform="translate(-39.5,-17.5)" />
  <rect
     x="134.5"
     y="173.5"
     width="7"
     height="2"
     id="PD.x563dcc6a40b0.t563dcc781ca0i0__inlet"
     style="stroke-width:1" />
  <text
     x="176"
     y="206"
     id="PD.x563dcc6a40b0.t563dcc781ca0__text"
     style="font-weight:bold;font-size:12px;font-family:'DejaVu Sans Mono';stroke-width:0"
     textLength="77"
     lengthAdjust="spacing"
     transform="translate(-39.5,-17.5)">mtx_print B</text>
  <polyline
     points="304.0 191.0 385.0 191.0 385.0 211.0 304.0 211.0 304.0 191.0"
     id="PD.x563dcc6a40b0.t563dcc781d40R__obj"
     style="stroke-width:1;stroke-linecap:square;stroke-linejoin:round"
     transform="translate(-39.5,-17.5)" />
  <rect
     x="264.5"
     y="173.5"
     width="7"
     height="2"
     id="PD.x563dcc6a40b0.t563dcc781d40i0__inlet"
     style="stroke-width:1" />
  <text
     x="306"
     y="206"
     id="PD.x563dcc6a40b0.t563dcc781d40__text"
     style="font-weight:bold;font-size:12px;font-family:'DejaVu Sans Mono';stroke-width:0"
     textLength="77"
     lengthAdjust="spacing"
     transform="translate(-39.5,-17.5)">mtx_print B</text>
  <polyline
     points="174.0 153.0 213.0 153.0 213.0 173.0 174.0 173.0 174.0 153.0"
     id="PD.x563dcc6a40b0.t563dcc781e00R__obj"
     style="stroke-width:1;stroke-linecap:square;stroke-linejoin:round"
     transform="translate(-39.5,-17.5)" />
  <rect
     x="134.5"
     y="153.5"
     width="7"
     height="2"
     id="PD.x563dcc6a40b0.t563dcc781e00o0__outlet"
     style="stroke-width:1" />
  <rect
     x="134.5"
     y="135.5"
     width="7"
     height="2"
     id="PD.x563dcc6a40b0.t563dcc781e00i0__inlet"
     style="stroke-width:1" />
  <rect
     x="166.5"
     y="135.5"
     width="7"
     height="2"
     id="PD.x563dcc6a40b0.t563dcc781e00i1__inlet"
     style="stroke-width:1" />
  <text
     x="176"
     y="168"
     id="PD.x563dcc6a40b0.t563dcc781e00__text"
     style="font-weight:bold;font-size:12px;font-family:'DejaVu Sans Mono';stroke-width:0"
     textLength="35"
     lengthAdjust="spacing"
     transform="translate(-39.5,-17.5)">mtx_+</text>
  <polyline
     points="304.0 153.0 350.0 153.0 350.0 173.0 304.0 173.0 304.0 153.0"
     id="PD.x563dcc6a40b0.t563dcc781ec0R__obj"
     style="stroke-width:1;stroke-linecap:square;stroke-linejoin:round"
     transform="translate(-39.5,-17.5)" />
  <rect
     x="264.5"
     y="153.5"
     width="7"
     height="2"
     id="PD.x563dcc6a40b0.t563dcc781ec0o0__outlet"
     style="stroke-width:1" />
  <rect
     x="264.5"
     y="135.5"
     width="7"
     height="2"
     id="PD.x563dcc6a40b0.t563dcc781ec0i0__inlet"
     style="stroke-width:1" />
  <rect
     x="303.5"
     y="135.5"
     width="7"
     height="2"
     id="PD.x563dcc6a40b0.t563dcc781ec0i1__inlet"
     style="stroke-width:1" />
  <text
     x="306"
     y="168"
     id="PD.x563dcc6a40b0.t563dcc781ec0__text"
     style="font-weight:bold;font-size:12px;font-family:'DejaVu Sans Mono';stroke-width:0"
     textLength="42"
     lengthAdjust="spacing"
     transform="translate(-39.5,-17.5)">mtx_&amp;&amp;</text>
  <polyline
     points="40.0 100.0 93.0 100.0 93.0 120.0 40.0 120.0 40.0 100.0"
     id="PD.x563dcc6a40b0.t563dcc7821d0R__obj"
     style="stroke-width:1;stroke-linecap:square;stroke-linejoin:round"
     transform="translate(-39.5,-17.5)" />
  <rect
     x="0.5"
     y="100.5"
     width="7"
     height="2"
     id="PD.x563dcc6a40b0.t563dcc7821d0o0__outlet"
     style="stroke-width:1" />
  <rect
     x="23.5"
     y="100.5"
     width="7"
     height="2"
     id="PD.x563dcc6a40b0.t563dcc7821d0o1__outlet"
     style="stroke-width:1" />
  <rect
     x="46.5"
     y="100.5"
     width="7"
     height="2"
     id="PD.x563dcc6a40b0.t563dcc7821d0o2__outlet"
     style="stroke-width:1" />
  <rect
     x="0.5"
     y="82.5"
     width="7"
     height="2"
     id="PD.x563dcc6a40b0.t563dcc7821d0i0__inlet"
     style="stroke-width:1" />
  <text
     x="42"
     y="115"
     id="PD.x563dcc6a40b0.t563dcc7821d0__text"
     style="font-weight:bold;font-size:12px;font-family:'DejaVu Sans Mono';stroke-width:0"
     textLength="49"
     lengthAdjust="spacing"
     transform="translate(-39.5,-17.5)">t a a a</text>
  <polyline
     points="226.0 95.0 279.0 95.0 279.0 115.0 226.0 115.0 226.0 95.0"
     id="PD.x563dcc6a40b0.t563dcc782290R__obj"
     style="stroke-width:1;stroke-linecap:square;stroke-linejoin:round"
     transform="translate(-39.5,-17.5)" />
  <rect
     x="186.5"
     y="95.5"
     width="7"
     height="2"
     id="PD.x563dcc6a40b0.t563dcc782290o0__outlet"
     style="stroke-width:1" />
  <rect
     x="209.5"
     y="95.5"
     width="7"
     height="2"
     id="PD.x563dcc6a40b0.t563dcc782290o1__outlet"
     style="stroke-width:1" />
  <rect
     x="232.5"
     y="95.5"
     width="7"
     height="2"
     id="PD.x563dcc6a40b0.t563dcc782290o2__outlet"
     style="stroke-width:1" />
  <rect
     x="186.5"
     y="77.5"
     width="7"
     height="2"
     id="PD.x563dcc6a40b0.t563dcc782290i0__inlet"
     style="stroke-width:1" />
  <text
     x="228"
     y="110"
     id="PD.x563dcc6a40b0.t563dcc782290__text"
     style="font-weight:bold;font-size:12px;font-family:'DejaVu Sans Mono';stroke-width:0"
     textLength="49"
     lengthAdjust="spacing"
     transform="translate(-39.5,-17.5)">t a a a</text>
  <polyline
     points="40.0 59.0 93.0 59.0 93.0 79.0 40.0 79.0 40.0 59.0"
     id="PD.x563dcc6a40b0.t563dcc782350R__obj"
     style="stroke-width:1;stroke-linecap:square;stroke-linejoin:round"
     transform="translate(-39.5,-17.5)" />
  <rect
     x="0.5"
     y="59.5"
     width="7"
     height="2"
     id="PD.x563dcc6a40b0.t563dcc782350o0__outlet"
     style="stroke-width:1" />
  <rect
     x="0.5"
     y="41.5"
     width="7"
     height="2"
     id="PD.x563dcc6a40b0.t563dcc782350i0__inlet"
     style="stroke-width:1" />
  <rect
     x="46.5"
     y="41.5"
     width="7"
     height="2"
     id="PD.x563dcc6a40b0.t563dcc782350i1__inlet"
     style="stroke-width:1" />
  <text
     x="42"
     y="74"
     id="PD.x563dcc6a40b0.t563dcc782350__text"
     style="font-weight:bold;font-size:12px;font-family:'DejaVu Sans Mono';stroke-width:0"
     textLength="49"
     lengthAdjust="spacing"
     transform="translate(-39.5,-17.5)">mtx 2 2</text>
  <polyline
     points="40.0 18.0 126.0 18.0 121.0 23.0 121.0 33.0 126.0 38.0 40.0 38.0 40.0 18.0"
     id="PD.x563dcc6a40b0.t563dcc782410R__msg"
     style="stroke-width:1;stroke-linecap:square;stroke-linejoin:round"
     transform="translate(-39.5,-17.5)" />
  <rect
     x="0.5"
     y="18.5"
     width="7"
     height="2"
     id="PD.x563dcc6a40b0.t563dcc782410o0__outlet"
     style="stroke-width:1" />
  <rect
     x="0.5"
     y="0.5"
     width="7"
     height="2"
     id="PD.x563dcc6a40b0.t563dcc782410i0__inlet"
     style="stroke-width:1" />
  <text
     x="42"
     y="33"
     id="PD.x563dcc6a40b0.t563dcc782410__text"
     style="font-weight:bold;font-size:12px;font-family:'DejaVu Sans Mono';stroke-width:0"
     textLength="77"
     lengthAdjust="spacing"
     transform="translate(-39.5,-17.5)">1 1.2 0.1 1</text>
  <polyline
     points="226.0 58.0 279.0 58.0 279.0 78.0 226.0 78.0 226.0 58.0"
     id="PD.x563dcc6a40b0.t563dcc7824d0R__obj"
     style="stroke-width:1;stroke-linecap:square;stroke-linejoin:round"
     transform="translate(-39.5,-17.5)" />
  <rect
     x="186.5"
     y="58.5"
     width="7"
     height="2"
     id="PD.x563dcc6a40b0.t563dcc7824d0o0__outlet"
     style="stroke-width:1" />
  <rect
     x="186.5"
     y="40.5"
     width="7"
     height="2"
     id="PD.x563dcc6a40b0.t563dcc7824d0i0__inlet"
     style="stroke-width:1" />
  <rect
     x="232.5"
     y="40.5"
     width="7"
     height="2"
     id="PD.x563dcc6a40b0.t563dcc7824d0i1__inlet"
     style="stroke-width:1" />
  <text
     x="228"
     y="73"
     id="PD.x563dcc6a40b0.t563dcc7824d0__text"
     style="font-weight:bold;font-size:12px;font-family:'DejaVu Sans Mono';stroke-width:0"
     textLength="49"
     lengthAdjust="spacing"
     transform="translate(-39.5,-17.5)">mtx 2 2</text>
  <polyline
     points="226.0 20.0 340.0 20.0 335.0 25.0 335.0 35.0 340.0 40.0 226.0 40.0 226.0 20.0"
     id="PD.x563dcc6a40b0.t563dcc782590R__msg"
     style="stroke-width:1;stroke-linecap:square;stroke-linejoin:round"
     transform="translate(-39.5,-17.5)" />
  <rect
     x="186.5"
     y="20.5"
     width="7"
     height="2"
     id="PD.x563dcc6a40b0.t563dcc782590o0__outlet"
     style="stroke-width:1" />
  <rect
     x="186.5"
     y="2.5"
     width="7"
     height="2"
     id="PD.x563dcc6a40b0.t563dcc782590i0__inlet"
     style="stroke-width:1" />
  <text
     x="228"
     y="35"
     id="PD.x563dcc6a40b0.t563dcc782590__text"
     style="font-weight:bold;font-size:12px;font-family:'DejaVu Sans Mono';stroke-width:0"
     textLength="105"
     lengthAdjust="spacing"
     transform="translate(-39.5,-17.5)">0.1 1.3 1.5 0.7</text>
  <polyline
     points="43.0 173.0 43.0 191.0"
     id="l0x563dcc70f170__cord"
     style="stroke-width:1;stroke-linejoin:round"
     transform="translate(-39.5,-17.5)" />
  <polyline
     points="177.0 173.0 177.0 191.0"
     id="l0x563dcc70f210__cord"
     style="stroke-width:1;stroke-linejoin:round"
     transform="translate(-39.5,-17.5)" />
  <polyline
     points="307.0 173.0 307.0 191.0"
     id="l0x563dcc70f230__cord"
     style="stroke-width:1;stroke-linejoin:round"
     transform="translate(-39.5,-17.5)" />
  <polyline
     points="43.0 120.0 43.0 153.0"
     id="l0x563dcc70f250__cord"
     style="stroke-width:1;stroke-linejoin:round"
     transform="translate(-39.5,-17.5)" />
  <polyline
     points="66.0 120.0 177.0 153.0"
     id="l0x563dcc70f270__cord"
     style="stroke-width:1;stroke-linejoin:round"
     transform="translate(-39.5,-17.5)" />
  <polyline
     points="89.0 120.0 307.0 153.0"
     id="l0x563dcc70f290__cord"
     style="stroke-width:1;stroke-linejoin:round"
     transform="translate(-39.5,-17.5)" />
  <polyline
     points="229.0 115.0 75.0 153.0"
     id="l0x563dcc70f2b0__cord"
     style="stroke-width:1;stroke-linejoin:round"
     transform="translate(-39.5,-17.5)" />
  <polyline
     points="252.0 115.0 209.0 153.0"
     id="l0x563dcc70f2d0__cord"
     style="stroke-width:1;stroke-linejoin:round"
     transform="translate(-39.5,-17.5)" />
  <polyline
     points="275.0 115.0 346.0 153.0"
     id="l0x563dcc70f2f0__cord"
     style="stroke-width:1;stroke-linejoin:round"
     transform="translate(-39.5,-17.5)" />
  <polyline
     points="43.0 79.0 43.0 100.0"
     id="l0x563dcc70f310__cord"
     style="stroke-width:1;stroke-linejoin:round"
     transform="translate(-39.5,-17.5)" />
  <polyline
     points="43.0 38.0 43.0 59.0"
     id="l0x563dcc70f330__cord"
     style="stroke-width:1;stroke-linejoin:round"
     transform="translate(-39.5,-17.5)" />
  <polyline
     points="229.0 78.0 229.0 95.0"
     id="l0x563dcc70f350__cord"
     style="stroke-width:1;stroke-linejoin:round"
     transform="translate(-39.5,-17.5)" />
  <polyline
     points="229.0 40.0 229.0 58.0"
     id="l0x563dcc70f370__cord"
     style="stroke-width:1;stroke-linejoin:round"
     transform="translate(-39.5,-17.5)" />
</svg>
