<?xml version="1.0" encoding="UTF-8" standalone="no"?>
<svg
   width="521"
   height="247"
   version="1.1"
   id="svg1"
   sodipodi:docname="5.pd.svg"
   inkscape:version="1.4.2 (ebf0e940d0, 2025-05-08)"
   xmlns:inkscape="http://www.inkscape.org/namespaces/inkscape"
   xmlns:sodipodi="http://sodipodi.sourceforge.net/DTD/sodipodi-0.dtd"
   xmlns="http://www.w3.org/2000/svg"
   xmlns:svg="http://www.w3.org/2000/svg">
   <style>
        polyline { fill: none; stroke: #000000; }
        rect { fill: #000000;  stroke: #000000; }
        text { fill: #000000; }
        polyline.dark-theme { fill: none; stroke: #000000; }
        rect.dark-theme { fill: #000000;  stroke: #000000; }
        text.dark-theme { fill: #000000; }
        @media (prefers-color-scheme: dark) {
            polyline { fill: none; stroke: #ffffff; }
            rect { fill: #ffffff;  stroke: #ffffff; }
            text { fill: #ffffff; }
        }
    </style>
  <defs
     id="defs1" />
  <sodipodi:namedview
     id="namedview1"
     pagecolor="#ffffff"
     bordercolor="#666666"
     borderopacity="1.0"
     inkscape:showpageshadow="2"
     inkscape:pageopacity="0.0"
     inkscape:pagecheckerboard="0"
     inkscape:deskcolor="#d1d1d1"
     inkscape:zoom="1.1167317"
     inkscape:cx="235.50868"
     inkscape:cy="199.68987"
     inkscape:window-width="1920"
     inkscape:window-height="1051"
     inkscape:window-x="0"
     inkscape:window-y="0"
     inkscape:window-maximized="1"
     inkscape:current-layer="svg1" />
  <polyline
     points="28.0 252.0 95.0 252.0 95.0 272.0 28.0 272.0 28.0 252.0"
     id="PD.x558257598b10.t558257626950R__obj"
     style="stroke-width:1;stroke-linecap:square;stroke-linejoin:round"
     transform="translate(-27.5,-65.5)" />
  <rect
     x="0.5"
     y="204.5"
     width="7"
     height="2"
     id="PD.x558257598b10.t558257626950o0__outlet"
     style="stroke-width:1" />
  <rect
     x="0.5"
     y="186.5"
     width="7"
     height="2"
     id="PD.x558257598b10.t558257626950i0__inlet"
     style="stroke-width:1" />
  <rect
     x="60.5"
     y="186.5"
     width="7"
     height="2"
     id="PD.x558257598b10.t558257626950i1__inlet"
     style="stroke-width:1" />
  <text
     x="30"
     y="267"
     id="PD.x558257598b10.t558257626950__text"
     style="font-weight:bold;font-size:12px;font-family:'DejaVu Sans Mono';stroke-width:0"
     textLength="63"
     lengthAdjust="spacing"
     transform="translate(-27.5,-65.5)">mtx_index</text>
  <polyline
     points="254.0 196.0 307.0 196.0 307.0 216.0 254.0 216.0 254.0 196.0"
     id="PD.x558257598b10.t5582576269f0R__obj"
     style="stroke-width:1;stroke-linecap:square;stroke-linejoin:round"
     transform="translate(-27.5,-65.5)" />
  <rect
     x="226.5"
     y="148.5"
     width="7"
     height="2"
     id="PD.x558257598b10.t5582576269f0o0__outlet"
     style="stroke-width:1" />
  <rect
     x="226.5"
     y="130.5"
     width="7"
     height="2"
     id="PD.x558257598b10.t5582576269f0i0__inlet"
     style="stroke-width:1" />
  <rect
     x="272.5"
     y="130.5"
     width="7"
     height="2"
     id="PD.x558257598b10.t5582576269f0i1__inlet"
     style="stroke-width:1" />
  <text
     x="256"
     y="211"
     id="PD.x558257598b10.t5582576269f0__text"
     style="font-weight:bold;font-size:12px;font-family:'DejaVu Sans Mono';stroke-width:0"
     textLength="49"
     lengthAdjust="spacing"
     transform="translate(-27.5,-65.5)">mtx 1 3</text>
  <polyline
     points="254.0 292.0 356.0 292.0 356.0 312.0 254.0 312.0 254.0 292.0"
     id="PD.x558257598b10.t558257626a90R__obj"
     style="stroke-width:1;stroke-linecap:square;stroke-linejoin:round"
     transform="translate(-27.5,-65.5)" />
  <rect
     x="226.5"
     y="226.5"
     width="7"
     height="2"
     id="PD.x558257598b10.t558257626a90i0__inlet"
     style="stroke-width:1" />
  <text
     x="256"
     y="307"
     id="PD.x558257598b10.t558257626a90__text"
     style="font-weight:bold;font-size:12px;font-family:'DejaVu Sans Mono';stroke-width:0"
     textLength="98"
     lengthAdjust="spacing"
     transform="translate(-27.5,-65.5)">mtx_print idcs</text>
  <polyline
     points="254.0 163.0 298.0 163.0 293.0 168.0 293.0 178.0 298.0 183.0 254.0 183.0 254.0 163.0"
     id="PD.x558257598b10.t558257626b50R__msg"
     style="stroke-width:1;stroke-linecap:square;stroke-linejoin:round"
     transform="translate(-27.5,-65.5)" />
  <rect
     x="226.5"
     y="115.5"
     width="7"
     height="2"
     id="PD.x558257598b10.t558257626b50o0__outlet"
     style="stroke-width:1" />
  <rect
     x="226.5"
     y="97.5"
     width="7"
     height="2"
     id="PD.x558257598b10.t558257626b50i0__inlet"
     style="stroke-width:1" />
  <text
     x="256"
     y="178"
     id="PD.x558257598b10.t558257626b50__text"
     style="font-weight:bold;font-size:12px;font-family:'DejaVu Sans Mono';stroke-width:0"
     textLength="35"
     lengthAdjust="spacing"
     transform="translate(-27.5,-65.5)">1 5 7</text>
  <polyline
     points="28.0 140.0 67.0 140.0 67.0 160.0 28.0 160.0 28.0 140.0"
     id="PD.x558257598b10.t558257626c10R__obj"
     style="stroke-width:1;stroke-linecap:square;stroke-linejoin:round"
     transform="translate(-27.5,-65.5)" />
  <rect
     x="0.5"
     y="92.5"
     width="7"
     height="2"
     id="PD.x558257598b10.t558257626c10o0__outlet"
     style="stroke-width:1" />
  <rect
     x="32.5"
     y="92.5"
     width="7"
     height="2"
     id="PD.x558257598b10.t558257626c10o1__outlet"
     style="stroke-width:1" />
  <rect
     x="0.5"
     y="74.5"
     width="7"
     height="2"
     id="PD.x558257598b10.t558257626c10i0__inlet"
     style="stroke-width:1" />
  <text
     x="30"
     y="155"
     id="PD.x558257598b10.t558257626c10__text"
     style="font-weight:bold;font-size:12px;font-family:'DejaVu Sans Mono';stroke-width:0"
     textLength="35"
     lengthAdjust="spacing"
     transform="translate(-27.5,-65.5)">t a a</text>
  <polyline
     points="78.0 177.0 159.0 177.0 159.0 197.0 78.0 197.0 78.0 177.0"
     id="PD.x558257598b10.t558257626cd0R__obj"
     style="stroke-width:1;stroke-linecap:square;stroke-linejoin:round"
     transform="translate(-27.5,-65.5)" />
  <rect
     x="50.5"
     y="111.5"
     width="7"
     height="2"
     id="PD.x558257598b10.t558257626cd0i0__inlet"
     style="stroke-width:1" />
  <text
     x="80"
     y="192"
     id="PD.x558257598b10.t558257626cd0__text"
     style="font-weight:bold;font-size:12px;font-family:'DejaVu Sans Mono';stroke-width:0"
     textLength="77"
     lengthAdjust="spacing"
     transform="translate(-27.5,-65.5)">mtx_print A</text>
  <polyline
     points="28.0 289.0 109.0 289.0 109.0 309.0 28.0 309.0 28.0 289.0"
     id="PD.x558257598b10.t558257626d90R__obj"
     style="stroke-width:1;stroke-linecap:square;stroke-linejoin:round"
     transform="translate(-27.5,-65.5)" />
  <rect
     x="0.5"
     y="223.5"
     width="7"
     height="2"
     id="PD.x558257598b10.t558257626d90i0__inlet"
     style="stroke-width:1" />
  <text
     x="30"
     y="304"
     id="PD.x558257598b10.t558257626d90__text"
     style="font-weight:bold;font-size:12px;font-family:'DejaVu Sans Mono';stroke-width:0"
     textLength="77"
     lengthAdjust="spacing"
     transform="translate(-27.5,-65.5)">mtx_print C</text>
  <polyline
     points="28.0 104.0 88.0 104.0 88.0 124.0 28.0 124.0 28.0 104.0"
     id="PD.x558257598b10.t558257626e50R__obj"
     style="stroke-width:1;stroke-linecap:square;stroke-linejoin:round"
     transform="translate(-27.5,-65.5)" />
  <rect
     x="0.5"
     y="56.5"
     width="7"
     height="2"
     id="PD.x558257598b10.t558257626e50o0__outlet"
     style="stroke-width:1" />
  <rect
     x="0.5"
     y="38.5"
     width="7"
     height="2"
     id="PD.x558257598b10.t558257626e50i0__inlet"
     style="stroke-width:1" />
  <text
     x="30"
     y="119"
     id="PD.x558257598b10.t558257626e50__text"
     style="font-weight:bold;font-size:12px;font-family:'DejaVu Sans Mono';stroke-width:0"
     textLength="56"
     lengthAdjust="spacing"
     transform="translate(-27.5,-65.5)">mtx_rand</text>
  <polyline
     points="28.0 66.0 58.0 66.0 53.0 71.0 53.0 81.0 58.0 86.0 28.0 86.0 28.0 66.0"
     id="PD.x558257598b10.t558257626f10R__msg"
     style="stroke-width:1;stroke-linecap:square;stroke-linejoin:round"
     transform="translate(-27.5,-65.5)" />
  <rect
     x="0.5"
     y="18.5"
     width="7"
     height="2"
     id="PD.x558257598b10.t558257626f10o0__outlet"
     style="stroke-width:1" />
  <rect
     x="0.5"
     y="0.5"
     width="7"
     height="2"
     id="PD.x558257598b10.t558257626f10i0__inlet"
     style="stroke-width:1" />
  <text
     x="30"
     y="81"
     id="PD.x558257598b10.t558257626f10__text"
     style="font-weight:bold;font-size:12px;font-family:'DejaVu Sans Mono';stroke-width:0"
     textLength="21"
     lengthAdjust="spacing"
     transform="translate(-27.5,-65.5)">4 4</text>
  <polyline
     points="438.0 120.0 505.0 120.0 505.0 140.0 438.0 140.0 438.0 120.0"
     id="PD.x558257598b10.t558257626fd0R__obj"
     style="stroke-width:1;stroke-linecap:square;stroke-linejoin:round"
     transform="translate(-27.5,-65.5)" />
  <rect
     x="410.5"
     y="72.5"
     width="7"
     height="2"
     id="PD.x558257598b10.t558257626fd0o0__outlet"
     style="stroke-width:1" />
  <rect
     x="410.5"
     y="54.5"
     width="7"
     height="2"
     id="PD.x558257598b10.t558257626fd0i0__inlet"
     style="stroke-width:1" />
  <rect
     x="470.5"
     y="54.5"
     width="7"
     height="2"
     id="PD.x558257598b10.t558257626fd0i1__inlet"
     style="stroke-width:1" />
  <text
     x="440"
     y="135"
     id="PD.x558257598b10.t558257626fd0__text"
     style="font-weight:bold;font-size:12px;font-family:'DejaVu Sans Mono';stroke-width:0"
     textLength="63"
     lengthAdjust="spacing"
     transform="translate(-27.5,-65.5)">mtx_slice</text>
  <polyline
     points="437.0 88.0 504.0 88.0 504.0 108.0 437.0 108.0 437.0 88.0"
     id="PD.x558257598b10.t558257627090R__obj"
     style="stroke-width:1;stroke-linecap:square;stroke-linejoin:round"
     transform="translate(-27.5,-65.5)" />
  <rect
     x="409.5"
     y="40.5"
     width="7"
     height="2"
     id="PD.x558257598b10.t558257627090o0__outlet"
     style="stroke-width:1" />
  <rect
     x="409.5"
     y="22.5"
     width="7"
     height="2"
     id="PD.x558257598b10.t558257627090i0__inlet"
     style="stroke-width:1" />
  <rect
     x="469.5"
     y="22.5"
     width="7"
     height="2"
     id="PD.x558257598b10.t558257627090i1__inlet"
     style="stroke-width:1" />
  <text
     x="439"
     y="103"
     id="PD.x558257598b10.t558257627090__text"
     style="font-weight:bold;font-size:12px;font-family:'DejaVu Sans Mono';stroke-width:0"
     textLength="63"
     lengthAdjust="spacing"
     transform="translate(-27.5,-65.5)">mtx_index</text>
  <polyline
     points="438.0 154.0 498.0 154.0 498.0 174.0 438.0 174.0 438.0 154.0"
     id="PD.x558257598b10.t558257627150R__obj"
     style="stroke-width:1;stroke-linecap:square;stroke-linejoin:round"
     transform="translate(-27.5,-65.5)" />
  <rect
     x="410.5"
     y="106.5"
     width="7"
     height="2"
     id="PD.x558257598b10.t558257627150o0__outlet"
     style="stroke-width:1" />
  <rect
     x="410.5"
     y="88.5"
     width="7"
     height="2"
     id="PD.x558257598b10.t558257627150i0__inlet"
     style="stroke-width:1" />
  <rect
     x="436.5"
     y="88.5"
     width="7"
     height="2"
     id="PD.x558257598b10.t558257627150i1__inlet"
     style="stroke-width:1" />
  <rect
     x="463.5"
     y="88.5"
     width="7"
     height="2"
     id="PD.x558257598b10.t558257627150i2__inlet"
     style="stroke-width:1" />
  <text
     x="440"
     y="169"
     id="PD.x558257598b10.t558257627150__text"
     style="font-weight:bold;font-size:12px;font-family:'DejaVu Sans Mono';stroke-width:0"
     textLength="56"
     lengthAdjust="spacing"
     transform="translate(-27.5,-65.5)">mtx_fill</text>
  <polyline
     points="439.0 220.0 548.0 220.0 548.0 240.0 439.0 240.0 439.0 220.0"
     id="PD.x558257598b10.t558257627210R__obj"
     style="stroke-width:1;stroke-linecap:square;stroke-linejoin:round"
     transform="translate(-27.5,-65.5)" />
  <rect
     x="411.5"
     y="172.5"
     width="7"
     height="2"
     id="PD.x558257598b10.t558257627210o0__outlet"
     style="stroke-width:1" />
  <rect
     x="411.5"
     y="154.5"
     width="7"
     height="2"
     id="PD.x558257598b10.t558257627210i0__inlet"
     style="stroke-width:1" />
  <rect
     x="445.5"
     y="154.5"
     width="7"
     height="2"
     id="PD.x558257598b10.t558257627210i1__inlet"
     style="stroke-width:1" />
  <rect
     x="479.5"
     y="154.5"
     width="7"
     height="2"
     id="PD.x558257598b10.t558257627210i2__inlet"
     style="stroke-width:1" />
  <rect
     x="513.5"
     y="154.5"
     width="7"
     height="2"
     id="PD.x558257598b10.t558257627210i3__inlet"
     style="stroke-width:1" />
  <text
     x="441"
     y="235"
     id="PD.x558257598b10.t558257627210__text"
     style="font-weight:bold;font-size:12px;font-family:'DejaVu Sans Mono';stroke-width:0"
     textLength="105"
     lengthAdjust="spacing"
     transform="translate(-27.5,-65.5)">mtx_fill_rowcol</text>
  <polyline
     points="438.0 187.0 547.0 187.0 547.0 207.0 438.0 207.0 438.0 187.0"
     id="PD.x558257598b10.t5582576272d0R__obj"
     style="stroke-width:1;stroke-linecap:square;stroke-linejoin:round"
     transform="translate(-27.5,-65.5)" />
  <rect
     x="410.5"
     y="139.5"
     width="7"
     height="2"
     id="PD.x558257598b10.t5582576272d0o0__outlet"
     style="stroke-width:1" />
  <rect
     x="512.5"
     y="139.5"
     width="7"
     height="2"
     id="PD.x558257598b10.t5582576272d0o1__outlet"
     style="stroke-width:1" />
  <rect
     x="410.5"
     y="121.5"
     width="7"
     height="2"
     id="PD.x558257598b10.t5582576272d0i0__inlet"
     style="stroke-width:1" />
  <text
     x="440"
     y="202"
     id="PD.x558257598b10.t5582576272d0__text"
     style="font-weight:bold;font-size:12px;font-family:'DejaVu Sans Mono';stroke-width:0"
     textLength="105"
     lengthAdjust="spacing"
     transform="translate(-27.5,-65.5)">mtx_find_rowcol</text>
  <polyline
     points="31.0 272.0 31.0 289.0"
     id="l0x55825757d4a0__cord"
     style="stroke-width:1;stroke-linejoin:round"
     transform="translate(-27.5,-65.5)" />
  <polyline
     points="257.0 216.0 91.0 252.0"
     id="l0x55825757e490__cord"
     style="stroke-width:1;stroke-linejoin:round"
     transform="translate(-27.5,-65.5)" />
  <polyline
     points="257.0 216.0 257.0 292.0"
     id="l0x558257593810__cord"
     style="stroke-width:1;stroke-linejoin:round"
     transform="translate(-27.5,-65.5)" />
  <polyline
     points="257.0 183.0 257.0 196.0"
     id="l0x55825759d720__cord"
     style="stroke-width:1;stroke-linejoin:round"
     transform="translate(-27.5,-65.5)" />
  <polyline
     points="31.0 160.0 31.0 252.0"
     id="l0x55825759d740__cord"
     style="stroke-width:1;stroke-linejoin:round"
     transform="translate(-27.5,-65.5)" />
  <polyline
     points="63.0 160.0 81.0 177.0"
     id="l0x55825759d760__cord"
     style="stroke-width:1;stroke-linejoin:round"
     transform="translate(-27.5,-65.5)" />
  <polyline
     points="31.0 124.0 31.0 140.0"
     id="l0x55825759d780__cord"
     style="stroke-width:1;stroke-linejoin:round"
     transform="translate(-27.5,-65.5)" />
  <polyline
     points="31.0 86.0 31.0 104.0"
     id="l0x55825759d7a0__cord"
     style="stroke-width:1;stroke-linejoin:round"
     transform="translate(-27.5,-65.5)" />
</svg>
