<?xml version="1.0" encoding="UTF-8" standalone="no"?>
<svg
   width="720"
   height="323"
   version="1.1"
   id="svg1"
   sodipodi:docname="7.pd.svg"
   inkscape:version="1.4.2 (ebf0e940d0, 2025-05-08)"
   xmlns:inkscape="http://www.inkscape.org/namespaces/inkscape"
   xmlns:sodipodi="http://sodipodi.sourceforge.net/DTD/sodipodi-0.dtd"
   xmlns="http://www.w3.org/2000/svg"
   xmlns:svg="http://www.w3.org/2000/svg">
  <defs
     id="defs1" />
  <sodipodi:namedview
     id="namedview1"
     pagecolor="#ffffff"
     bordercolor="#666666"
     borderopacity="1.0"
     inkscape:showpageshadow="2"
     inkscape:pageopacity="0.0"
     inkscape:pagecheckerboard="0"
     inkscape:deskcolor="#d1d1d1"
     inkscape:zoom="1.9272727"
     inkscape:cx="360.35377"
     inkscape:cy="132.31132"
     inkscape:window-width="1920"
     inkscape:window-height="1051"
     inkscape:window-x="0"
     inkscape:window-y="0"
     inkscape:window-maximized="1"
     inkscape:current-layer="svg1" />
  <polyline
     points="190.0 123.0 229.0 123.0 229.0 143.0 190.0 143.0 190.0 123.0"
     id="PD.x563dcc71a770.t563dcc77dc90R__obj"
     style="fill:none;stroke:#000000;stroke-width:1;stroke-linecap:square;stroke-linejoin:round"
     transform="translate(-32.5,-87.5)" />
  <rect
     x="157.5"
     y="53.5"
     width="7"
     height="2"
     id="PD.x563dcc71a770.t563dcc77dc90o0__outlet"
     style="fill:#000000;stroke:#000000;stroke-width:1" />
  <rect
     x="157.5"
     y="35.5"
     width="7"
     height="2"
     id="PD.x563dcc71a770.t563dcc77dc90i0__inlet"
     style="fill:#000000;stroke:#000000;stroke-width:1" />
  <text
     x="192"
     y="138"
     id="PD.x563dcc71a770.t563dcc77dc90__text"
     style="font-weight:bold;font-size:12px;font-family:'DejaVu Sans Mono';fill:#000000;stroke-width:0"
     textLength="35"
     lengthAdjust="spacing"
     transform="translate(-32.5,-87.5)">mtx_:</text>
  <polyline
     points="190.0 157.0 264.0 157.0 264.0 177.0 190.0 177.0 190.0 157.0"
     id="PD.x563dcc71a770.t563dcc77dd30R__obj"
     style="fill:none;stroke:#000000;stroke-width:1;stroke-linecap:square;stroke-linejoin:round"
     transform="translate(-32.5,-87.5)" />
  <rect
     x="157.5"
     y="87.5"
     width="7"
     height="2"
     id="PD.x563dcc71a770.t563dcc77dd30o0__outlet"
     style="fill:#000000;stroke:#000000;stroke-width:1" />
  <rect
     x="157.5"
     y="69.5"
     width="7"
     height="2"
     id="PD.x563dcc71a770.t563dcc77dd30i0__inlet"
     style="fill:#000000;stroke:#000000;stroke-width:1" />
  <text
     x="192"
     y="172"
     id="PD.x563dcc71a770.t563dcc77dd30__text"
     style="font-weight:bold;font-size:12px;font-family:'DejaVu Sans Mono';fill:#000000;stroke-width:0"
     textLength="70"
     lengthAdjust="spacing"
     transform="translate(-32.5,-87.5)">mtx_cumsum</text>
  <polyline
     points="190.0 191.0 243.0 191.0 243.0 211.0 190.0 211.0 190.0 191.0"
     id="PD.x563dcc71a770.t563dcc77ddd0R__obj"
     style="fill:none;stroke:#000000;stroke-width:1;stroke-linecap:square;stroke-linejoin:round"
     transform="translate(-32.5,-87.5)" />
  <rect
     x="157.5"
     y="121.5"
     width="7"
     height="2"
     id="PD.x563dcc71a770.t563dcc77ddd0o0__outlet"
     style="fill:#000000;stroke:#000000;stroke-width:1" />
  <rect
     x="157.5"
     y="103.5"
     width="7"
     height="2"
     id="PD.x563dcc71a770.t563dcc77ddd0i0__inlet"
     style="fill:#000000;stroke:#000000;stroke-width:1" />
  <text
     x="192"
     y="206"
     id="PD.x563dcc71a770.t563dcc77ddd0__text"
     style="font-weight:bold;font-size:12px;font-family:'DejaVu Sans Mono';fill:#000000;stroke-width:0"
     textLength="49"
     lengthAdjust="spacing"
     transform="translate(-32.5,-87.5)">mtx_sin</text>
  <polyline
     points="190.0 227.0 278.0 227.0 278.0 247.0 190.0 247.0 190.0 227.0"
     id="PD.x563dcc71a770.t563dcc77de90R__obj"
     style="fill:none;stroke:#000000;stroke-width:1;stroke-linecap:square;stroke-linejoin:round"
     transform="translate(-32.5,-87.5)" />
  <rect
     x="157.5"
     y="157.5"
     width="7"
     height="2"
     id="PD.x563dcc71a770.t563dcc77de90o0__outlet"
     style="fill:#000000;stroke:#000000;stroke-width:1" />
  <rect
     x="197.5"
     y="157.5"
     width="7"
     height="2"
     id="PD.x563dcc71a770.t563dcc77de90o1__outlet"
     style="fill:#000000;stroke:#000000;stroke-width:1" />
  <rect
     x="238.5"
     y="157.5"
     width="7"
     height="2"
     id="PD.x563dcc71a770.t563dcc77de90o2__outlet"
     style="fill:#000000;stroke:#000000;stroke-width:1" />
  <rect
     x="157.5"
     y="139.5"
     width="7"
     height="2"
     id="PD.x563dcc71a770.t563dcc77de90i0__inlet"
     style="fill:#000000;stroke:#000000;stroke-width:1" />
  <rect
     x="238.5"
     y="139.5"
     width="7"
     height="2"
     id="PD.x563dcc71a770.t563dcc77de90i1__inlet"
     style="fill:#000000;stroke:#000000;stroke-width:1" />
  <text
     x="192"
     y="242"
     id="PD.x563dcc71a770.t563dcc77de90__text"
     style="font-weight:bold;font-size:12px;font-family:'DejaVu Sans Mono';fill:#000000;stroke-width:0"
     textLength="84"
     lengthAdjust="spacing"
     transform="translate(-32.5,-87.5)">list split 3</text>
  <polyline
     points="253.0 263.0 292.0 263.0 292.0 283.0 253.0 283.0 253.0 263.0"
     id="PD.x563dcc71a770.t563dcc77df50R__obj"
     style="fill:none;stroke:#000000;stroke-width:1;stroke-linecap:square;stroke-linejoin:round"
     transform="translate(-32.5,-87.5)" />
  <rect
     x="220.5"
     y="193.5"
     width="7"
     height="2"
     id="PD.x563dcc71a770.t563dcc77df50o0__outlet"
     style="fill:#000000;stroke:#000000;stroke-width:1" />
  <rect
     x="252.5"
     y="193.5"
     width="7"
     height="2"
     id="PD.x563dcc71a770.t563dcc77df50o1__outlet"
     style="fill:#000000;stroke:#000000;stroke-width:1" />
  <rect
     x="220.5"
     y="175.5"
     width="7"
     height="2"
     id="PD.x563dcc71a770.t563dcc77df50i0__inlet"
     style="fill:#000000;stroke:#000000;stroke-width:1" />
  <text
     x="255"
     y="278"
     id="PD.x563dcc71a770.t563dcc77df50__text"
     style="font-weight:bold;font-size:12px;font-family:'DejaVu Sans Mono';fill:#000000;stroke-width:0"
     textLength="35"
     lengthAdjust="spacing"
     transform="translate(-32.5,-87.5)">t l l</text>
  <polyline
     points="253.0 343.0 355.0 343.0 355.0 363.0 253.0 363.0 253.0 343.0"
     id="PD.x563dcc71a770.t563dcc77e010R__obj"
     style="fill:none;stroke:#000000;stroke-width:1;stroke-linecap:square;stroke-linejoin:round"
     transform="translate(-32.5,-87.5)" />
  <rect
     x="220.5"
     y="273.5"
     width="7"
     height="2"
     id="PD.x563dcc71a770.t563dcc77e010o0__outlet"
     style="fill:#000000;stroke:#000000;stroke-width:1" />
  <rect
     x="220.5"
     y="255.5"
     width="7"
     height="2"
     id="PD.x563dcc71a770.t563dcc77e010i0__inlet"
     style="fill:#000000;stroke:#000000;stroke-width:1" />
  <rect
     x="315.5"
     y="255.5"
     width="7"
     height="2"
     id="PD.x563dcc71a770.t563dcc77e010i1__inlet"
     style="fill:#000000;stroke:#000000;stroke-width:1" />
  <text
     x="255"
     y="358"
     id="PD.x563dcc71a770.t563dcc77e010__text"
     style="font-weight:bold;font-size:12px;font-family:'DejaVu Sans Mono';fill:#000000;stroke-width:0"
     textLength="98"
     lengthAdjust="spacing"
     transform="translate(-32.5,-87.5)">list prepend 0</text>
  <polyline
     points="423.0 344.0 495.0 344.0 490.0 349.0 490.0 359.0 495.0 364.0 423.0 364.0 423.0 344.0"
     id="PD.x563dcc71a770.t563dcc77e0d0R__msg"
     style="fill:none;stroke:#000000;stroke-width:1;stroke-linecap:square;stroke-linejoin:round"
     transform="translate(-32.5,-87.5)" />
  <rect
     x="390.5"
     y="274.5"
     width="7"
     height="2"
     id="PD.x563dcc71a770.t563dcc77e0d0o0__outlet"
     style="fill:#000000;stroke:#000000;stroke-width:1" />
  <rect
     x="390.5"
     y="256.5"
     width="7"
     height="2"
     id="PD.x563dcc71a770.t563dcc77e0d0i0__inlet"
     style="fill:#000000;stroke:#000000;stroke-width:1" />
  <text
     x="425"
     y="359"
     id="PD.x563dcc71a770.t563dcc77e0d0__text"
     style="font-weight:bold;font-size:12px;font-family:'DejaVu Sans Mono';fill:#000000;stroke-width:0"
     textLength="63"
     lengthAdjust="spacing"
     transform="translate(-32.5,-87.5)">resize $1</text>
  <polyline
     points="423.0 308.0 504.0 308.0 504.0 328.0 423.0 328.0 423.0 308.0"
     id="PD.x563dcc71a770.t563dcc77e190R__obj"
     style="fill:none;stroke:#000000;stroke-width:1;stroke-linecap:square;stroke-linejoin:round"
     transform="translate(-32.5,-87.5)" />
  <rect
     x="390.5"
     y="238.5"
     width="7"
     height="2"
     id="PD.x563dcc71a770.t563dcc77e190o0__outlet"
     style="fill:#000000;stroke:#000000;stroke-width:1" />
  <rect
     x="390.5"
     y="220.5"
     width="7"
     height="2"
     id="PD.x563dcc71a770.t563dcc77e190i0__inlet"
     style="fill:#000000;stroke:#000000;stroke-width:1" />
  <text
     x="425"
     y="323"
     id="PD.x563dcc71a770.t563dcc77e190__text"
     style="font-weight:bold;font-size:12px;font-family:'DejaVu Sans Mono';fill:#000000;stroke-width:0"
     textLength="77"
     lengthAdjust="spacing"
     transform="translate(-32.5,-87.5)">list length</text>
  <polyline
     points="253.0 390.0 306.0 390.0 306.0 410.0 253.0 410.0 253.0 390.0"
     id="PD.x563dcc71a770.t563dcc77e250R__obj"
     style="fill:none;stroke:#000000;stroke-width:1;stroke-linecap:square;stroke-linejoin:round"
     transform="translate(-32.5,-87.5)" />
  <rect
     x="220.5"
     y="302.5"
     width="7"
     height="2"
     id="PD.x563dcc71a770.t563dcc77e250i0__inlet"
     style="fill:#000000;stroke:#000000;stroke-width:1" />
  <text
     x="255"
     y="405"
     id="PD.x563dcc71a770.t563dcc77e250__text"
     style="font-weight:bold;font-size:12px;font-family:'DejaVu Sans Mono';fill:#000000;stroke-width:0"
     textLength="49"
     lengthAdjust="spacing"
     transform="translate(-32.5,-87.5)">s sweep</text>
  <polyline
     points="33.0 314.0 135.0 314.0 135.0 334.0 33.0 334.0 33.0 314.0"
     id="PD.x563dcc71a770.t563dcc77e3d0R__obj"
     style="fill:none;stroke:#000000;stroke-width:1;stroke-linecap:square;stroke-linejoin:round"
     transform="translate(-32.5,-87.5)" />
  <rect
     x="0.5"
     y="244.5"
     width="7"
     height="2"
     id="PD.x563dcc71a770.t563dcc77e3d0o0__outlet"
     style="fill:#000000;stroke:#000000;stroke-width:1" />
  <rect
     x="95.5"
     y="244.5"
     width="7"
     height="2"
     id="PD.x563dcc71a770.t563dcc77e3d0o1__outlet"
     style="fill:#000000;stroke:#000000;stroke-width:1" />
  <rect
     x="0.5"
     y="226.5"
     width="7"
     height="2"
     id="PD.x563dcc71a770.t563dcc77e3d0i0__inlet"
     style="fill:#000000;stroke:#000000;stroke-width:1" />
  <text
     x="35"
     y="329"
     id="PD.x563dcc71a770.t563dcc77e3d0__text"
     style="font-weight:bold;font-size:12px;font-family:'DejaVu Sans Mono';fill:#000000;stroke-width:0"
     textLength="98"
     lengthAdjust="spacing"
     transform="translate(-32.5,-87.5)">tabplay~ sweep</text>
  <polyline
     points="34.0 389.0 80.0 389.0 80.0 409.0 34.0 409.0 34.0 389.0"
     id="PD.x563dcc71a770.t563dcc77e490R__obj"
     style="fill:none;stroke:#000000;stroke-width:1;stroke-linecap:square;stroke-linejoin:round"
     transform="translate(-32.5,-87.5)" />
  <rect
     x="1.5"
     y="301.5"
     width="7"
     height="2"
     id="PD.x563dcc71a770.t563dcc77e490i0__inlet"
     style="fill:#000000;stroke:#000000;stroke-width:1" />
  <text
     x="36"
     y="404"
     id="PD.x563dcc71a770.t563dcc77e490__text"
     style="font-weight:bold;font-size:12px;font-family:'DejaVu Sans Mono';fill:#000000;stroke-width:0"
     textLength="42"
     lengthAdjust="spacing"
     transform="translate(-32.5,-87.5)">dac~ 1</text>
  <rect
     x="0.5"
     y="201.5"
     width="15"
     height="15"
     id="PD0x563dcc71e460OBJ__0x563dcc71e460BASE"
     style="fill:#fcfcfc;stroke:#000000;stroke-width:1" />
  <circle
     cx="8"
     cy="209"
     id="PD0x563dcc71e460OBJ__0x563dcc71e460BUT"
     style="fill:#fcfcfc;stroke:#000000;stroke-width:1"
     r="6.5" />
  <rect
     x="0.5"
     y="214.5"
     width="7"
     height="2"
     id="PD0x563dcc71e460OBJ__0x563dcc71e460OUT0"
     style="fill:#000000;stroke:#000000;stroke-width:1" />
  <rect
     x="0.5"
     y="201.5"
     width="7"
     height="2"
     id="PD0x563dcc71e460OBJ__0x563dcc71e460IN0"
     style="fill:#000000;stroke:#000000;stroke-width:1" />
  <text
     x="33"
     y="299.5"
     id="PD0x563dcc71e460OBJ__0x563dcc71e460LABEL__label__text"
     style="font-weight:bold;font-size:10px;font-family:'DejaVu Sans Mono';fill:#000000;stroke-width:0"
     textLength="0"
     lengthAdjust="spacing"
     transform="translate(-32.5,-87.5)" />
  <polyline
     points="190.0 88.0 304.0 88.0 299.0 93.0 299.0 103.0 304.0 108.0 190.0 108.0 190.0 88.0"
     id="PD.x563dcc71a770.t563dcc77e550R__msg"
     style="fill:none;stroke:#000000;stroke-width:1;stroke-linecap:square;stroke-linejoin:round"
     transform="translate(-32.5,-87.5)" />
  <rect
     x="157.5"
     y="18.5"
     width="7"
     height="2"
     id="PD.x563dcc71a770.t563dcc77e550o0__outlet"
     style="fill:#000000;stroke:#000000;stroke-width:1" />
  <rect
     x="157.5"
     y="0.5"
     width="7"
     height="2"
     id="PD.x563dcc71a770.t563dcc77e550i0__inlet"
     style="fill:#000000;stroke:#000000;stroke-width:1" />
  <text
     x="192"
     y="103"
     id="PD.x563dcc71a770.t563dcc77e550__text"
     style="font-weight:bold;font-size:12px;font-family:'DejaVu Sans Mono';fill:#000000;stroke-width:0"
     textLength="105"
     lengthAdjust="spacing"
     transform="translate(-32.5,-87.5)">0.05 5e-05 0.25</text>
  <polyline
     points="34.0 351.0 80.0 351.0 80.0 371.0 34.0 371.0 34.0 351.0"
     id="PD.x563dcc71a770.t563dcc77e610R__obj"
     style="fill:none;stroke:#000000;stroke-width:1;stroke-linecap:square;stroke-linejoin:round"
     transform="translate(-32.5,-87.5)" />
  <rect
     x="1.5"
     y="281.5"
     width="7"
     height="2"
     id="PD.x563dcc71a770.t563dcc77e610o0__outlet"
     style="fill:#000000;stroke:#000000;stroke-width:1" />
  <rect
     x="1.5"
     y="263.5"
     width="7"
     height="2"
     id="PD.x563dcc71a770.t563dcc77e610i0__inlet"
     style="fill:#000000;stroke:#000000;stroke-width:1" />
  <rect
     x="40.5"
     y="263.5"
     width="7"
     height="2"
     id="PD.x563dcc71a770.t563dcc77e610i1__inlet"
     style="fill:#000000;stroke:#000000;stroke-width:1" />
  <text
     x="36"
     y="366"
     id="PD.x563dcc71a770.t563dcc77e610__text"
     style="font-weight:bold;font-size:12px;font-family:'DejaVu Sans Mono';fill:#000000;stroke-width:0"
     textLength="42"
     lengthAdjust="spacing"
     transform="translate(-32.5,-87.5)">*~ 0.1</text>
  <text
     x="378"
     y="100"
     id="PD.x563dcc71a770.t563dcc77e6d0__text"
     style="font-weight:bold;font-size:12px;font-family:'DejaVu Sans Mono';fill:#000000;stroke-width:0"
     textLength="119"
     lengthAdjust="spacing"
     transform="translate(-32.5,-87.5)">digital frequency</text>
  <polyline
     points="352.0 136.0 352.0 276.0 752.0 276.0 752.0 136.0 352.0 136.0"
     id="graph563dcc71b8a0__graph"
     style="fill:none;stroke:#000000;stroke-width:1;stroke-linecap:square;stroke-linejoin:round"
     transform="translate(-32.5,-87.5)" />
  <text
     x="352"
     y="132"
     id="graph563dcc71b8a0__label__graph"
     style="font-weight:bold;font-size:12px;font-family:'DejaVu Sans Mono';fill:#000000;stroke-width:0"
     textLength="35"
     lengthAdjust="spacing"
     transform="translate(-32.5,-87.5)">sweep</text>
  <polyline
     points="352.0 202.501 353.0 185.263 354.0 155.493 355.0 138.256 356.0 138.365 357.0 156.283 358.0 187.694 359.0 224.378 360.0 256.259 361.0 274.162 362.0 272.542 363.0 251.359 364.0 216.438 365.0 178.061 366.0 148.029 367.0 136.021 368.0 146.343 369.0 176.183 370.0 216.131 371.0 252.966 372.0 273.993 373.0 271.508 374.0 245.834 375.0 205.657 376.0 165.319 377.0 139.786 378.0 139.021 379.0 163.878 380.0 205.27 381.0 247.23 382.0 272.961 383.0 271.647 384.0 243.243 385.0 199.065 386.0 157.548 387.0 136.647 388.0 145.932 389.0 181.909 390.0 228.942 391.0 265.8 392.0 275.228 393.0 252.258 394.0 207.167 395.0 161.249 396.0 136.916 397.0 146.629 398.0 186.168 399.0 236.006 400.0 270.676 401.0 271.811 402.0 238.189 403.0 187.165 404.0 146.073 405.0 137.644 406.0 167.148 407.0 218.66 408.0 263.227 409.0 275.031 410.0 246.614 411.0 194.069 412.0 148.395 413.0 137.34 414.0 168.253 415.0 222.687 416.0 266.926 417.0 272.76 418.0 235.823 419.0 179.378 420.0 140.134 421.0 144.397 422.0 189.995 423.0 246.648 424.0 275.678 425.0 256.531 426.0 201.89 427.0 149.928 428.0 137.899 429.0 175.107 430.0 235.065 431.0 273.783 432.0 262.025 433.0 207.935 434.0 152.155 435.0 137.643 436.0 176.282 437.0 238.436 438.0 275.064 439.0 256.423 440.0 196.858 441.0 144.555 442.0 142.838 443.0 193.823 444.0 255.25 445.0 274.992 446.0 235.541 447.0 170.336 448.0 136.13 449.0 163.554 450.0 228.932 451.0 273.879 452.0 257.29 453.0 193.609 454.0 141.192 455.0 149.138 456.0 210.696 457.0 267.979 458.0 265.973 459.0 205.907 460.0 145.753 461.0 144.773 462.0 204.635 463.0 266.038 464.0 266.913 465.0 205.672 466.0 144.598 467.0 147.045 468.0 211.167 469.0 270.011 470.0 260.928 471.0 192.913 472.0 138.873 473.0 157.877 474.0 229.822 475.0 275.551 476.0 243.705 477.0 169.326 478.0 136.392 479.0 183.01 480.0 256.245 481.0 271.261 482.0 209.879 483.0 143.781 484.0 151.538 485.0 224.586 486.0 275.346 487.0 241.829 488.0 164.313 489.0 138.131 490.0 196.361 491.0 266.794 492.0 260.58 493.0 184.909 494.0 136.124 495.0 177.456 496.0 255.983 497.0 269.191 498.0 199.069 499.0 138.029 500.0 167.821 501.0 249.105 502.0 272.043 503.0 204.789 504.0 139.09 505.0 165.97 506.0 248.724 507.0 271.612 508.0 201.773 509.0 137.845 510.0 171.483 511.0 254.96 512.0 267.462 513.0 190.142 514.0 136.048 515.0 185.477 516.0 265.563 517.0 256.393 518.0 171.121 519.0 138.747 520.0 209.185 521.0 274.805 522.0 233.94 523.0 149.485 524.0 153.565 525.0 240.391 526.0 272.705 527.0 198.49 528.0 136.271 529.0 186.748 530.0 268.594 531.0 248.068 532.0 158.258 533.0 147.446 534.0 234.186 535.0 273.756 536.0 199.13 537.0 136.096 538.0 192.243 539.0 272.031 540.0 237.947 541.0 148.405 542.0 159.317 543.0 252.167 544.0 263.59 545.0 172.805 546.0 141.216 547.0 225.879 548.0 274.709 549.0 198.886 550.0 136.009 551.0 201.501 552.0 275.316 553.0 220.623 554.0 138.65 555.0 182.882 556.0 270.686 557.0 235.988 558.0 144.181 559.0 170.681 560.0 265.142 561.0 245.236 562.0 149.052 563.0 164.132 564.0 261.44 565.0 249.321 566.0 151.258 567.0 162.342 568.0 260.91 569.0 248.896 570.0 150.071 571.0 165.0 572.0 263.721 573.0 243.887 574.0 145.871 575.0 172.558 576.0 268.919 577.0 233.533 578.0 140.24 579.0 185.956 580.0 274.22 581.0 216.916 582.0 136.236 583.0 205.808 584.0 275.767 585.0 194.083 586.0 138.452 587.0 230.98 588.0 268.432 589.0 167.714 590.0 152.152 591.0 256.822 592.0 247.458 593.0 144.72 594.0 180.683 595.0 274.146 596.0 212.029 597.0 136.14 598.0 221.11 599.0 271.085 600.0 169.928 601.0 152.95 602.0 260.181 603.0 239.941 604.0 139.593 605.0 196.759 606.0 275.865 607.0 187.911 608.0 143.456 609.0 249.752 610.0 250.082 611.0 143.333 612.0 189.535 613.0 275.998 614.0 190.29 615.0 143.456 616.0 251.635 617.0 246.174 618.0 140.411 619.0 199.187 620.0 275.027 621.0 176.42 622.0 152.945 623.0 264.523 624.0 226.443 625.0 136.002 626.0 225.843 627.0 264.29 628.0 151.554 629.0 180.671 630.0 275.891 631.0 187.767 632.0 147.752 633.0 261.576 634.0 227.962 635.0 136.014 636.0 230.962 637.0 258.903 638.0 144.65 639.0 196.022 640.0 274.292 641.0 167.013 642.0 166.146 643.0 274.215 644.0 194.984 645.0 146.229 646.0 262.603 647.0 221.935 648.0 137.066 649.0 244.6 650.0 243.912 651.0 136.817 652.0 224.765 653.0 259.504 654.0 142.539 655.0 206.259 656.0 269.09 657.0 151.28 658.0 190.792 659.0 273.987 660.0 160.651 661.0 178.955 662.0 275.789 663.0 168.995 664.0 170.648 665.0 275.944 666.0 175.282 667.0 165.491 668.0 275.555 669.0 178.962 670.0 163.089 671.0 275.31 672.0 179.786 673.0 163.215 674.0 275.469 675.0 177.706 676.0 165.88 677.0 275.87 678.0 172.848 679.0 171.336 680.0 275.925 681.0 165.576 682.0 179.983 683.0 274.625 684.0 156.628 685.0 192.191 686.0 270.589 687.0 147.283 688.0 208.005 689.0 262.23 690.0 139.519 691.0 226.745 692.0 248.116 693.0 136.009 694.0 246.566 695.0 227.575 696.0 139.8 697.0 264.148 698.0 201.532 699.0 153.522 700.0 274.828 701.0 173.298 702.0 178.073 703.0 273.484 704.0 148.928 705.0 211.023 706.0 256.441 707.0 136.388 708.0 245.469 709.0 224.161 710.0 143.026 711.0 270.486 712.0 183.666 713.0 171.418 714.0 274.349 715.0 148.779 716.0 215.108 717.0 250.611 718.0 136.14 719.0 257.309 720.0 204.863 721.0 156.51 722.0 275.996 723.0 157.354 724.0 204.73 725.0 256.197 726.0 136.001 727.0 255.922 728.0 204.073 729.0 159.114 730.0 275.774 731.0 151.178 732.0 216.684 733.0 244.845 734.0 138.108 735.0 267.912 736.0 181.414 737.0 181.17 738.0 267.707 739.0 137.684 740.0 248.059 741.0 209.982 742.0 158.11 743.0 275.446 744.0 146.717 745.0 228.591 746.0 229.86 747.0 146.377 748.0 275.537 749.0 156.065 750.0 215.615 751.0 240.397 752.0 141.819"
     id="plot0x563dcc71bb08__plot0x563dcc71bb08_array0x563dcc7eb820_onset-1-1+0__array"
     style="fill:none;stroke:#000000;stroke-width:1;stroke-linejoin:round"
     transform="translate(-32.5,-87.5)" />
  <polyline
     points="193.0 143.0 193.0 157.0"
     id="l0x563dcc71eca0__cord"
     style="fill:none;stroke:#000000;stroke-width:1;stroke-linejoin:round"
     transform="translate(-32.5,-87.5)" />
  <polyline
     points="193.0 177.0 193.0 191.0"
     id="l0x563dcc71ecc0__cord"
     style="fill:none;stroke:#000000;stroke-width:1;stroke-linejoin:round"
     transform="translate(-32.5,-87.5)" />
  <polyline
     points="193.0 211.0 193.0 227.0"
     id="l0x563dcc71ece0__cord"
     style="fill:none;stroke:#000000;stroke-width:1;stroke-linejoin:round"
     transform="translate(-32.5,-87.5)" />
  <polyline
     points="233.0 247.0 256.0 263.0"
     id="l0x563dcc71ed00__cord"
     style="fill:none;stroke:#000000;stroke-width:1;stroke-linejoin:round"
     transform="translate(-32.5,-87.5)" />
  <polyline
     points="256.0 283.0 256.0 343.0"
     id="l0x563dcc71ed20__cord"
     style="fill:none;stroke:#000000;stroke-width:1;stroke-linejoin:round"
     transform="translate(-32.5,-87.5)" />
  <polyline
     points="288.0 283.0 426.0 308.0"
     id="l0x563dcc71ed40__cord"
     style="fill:none;stroke:#000000;stroke-width:1;stroke-linejoin:round"
     transform="translate(-32.5,-87.5)" />
  <polyline
     points="256.0 363.0 256.0 390.0"
     id="l0x563dcc71ed60__cord"
     style="fill:none;stroke:#000000;stroke-width:1;stroke-linejoin:round"
     transform="translate(-32.5,-87.5)" />
  <polyline
     points="426.0 364.0 256.0 390.0"
     id="l0x563dcc71ed80__cord"
     style="fill:none;stroke:#000000;stroke-width:1;stroke-linejoin:round"
     transform="translate(-32.5,-87.5)" />
  <polyline
     points="426.0 328.0 426.0 344.0"
     id="l0x563dcc71eda0__cord"
     style="fill:none;stroke:#000000;stroke-width:1;stroke-linejoin:round"
     transform="translate(-32.5,-87.5)" />
  <polyline
     points="36.0 334.0 37.0 351.0"
     id="l0x563dcc71edc0__cord"
     style="fill:none;stroke:#000000;stroke-width:2;stroke-linejoin:round"
     transform="translate(-32.5,-87.5)" />
  <polyline
     points="36.0 304.0 36.0 314.0"
     id="l0x563dcc71ede0__cord"
     style="fill:none;stroke:#000000;stroke-width:1;stroke-linejoin:round"
     transform="translate(-32.5,-87.5)" />
  <polyline
     points="193.0 108.0 193.0 123.0"
     id="l0x563dcc71ee00__cord"
     style="fill:none;stroke:#000000;stroke-width:1;stroke-linejoin:round"
     transform="translate(-32.5,-87.5)" />
  <polyline
     points="37.0 371.0 37.0 389.0"
     id="l0x563dcc71ee20__cord"
     style="fill:none;stroke:#000000;stroke-width:2;stroke-linejoin:round"
     transform="translate(-32.5,-87.5)" />
</svg>
